HIERARCHY
ROOT root
{
	OFFSET	0	13.1	24.9
	CHANNELS 6  Xposition Yposition Zposition Xrotation Yrotation Zrotation
	JOINT spine_1
	{
		OFFSET	0	9.99999	0
		CHANNELS 3  Xrotation Yrotation Zrotation
		JOINT spine_2
		{
			OFFSET	0	112	-10
			CHANNELS 3  Xrotation Yrotation Zrotation
			JOINT spine_3
			{
				OFFSET	0	206.5	19.3
				CHANNELS 3  Xrotation Yrotation Zrotation
				JOINT spine_4
				{
					OFFSET	0	110.4	14.6
					CHANNELS 3  Xrotation Yrotation Zrotation
					JOINT neck_1
					{
						OFFSET	0	71.8	-50.3
						CHANNELS 3  Xrotation Yrotation Zrotation
						JOINT neck_2
						{
							OFFSET	0	86.2	-25.8
							CHANNELS 3  Xrotation Yrotation Zrotation
							JOINT head_ee
							{
								OFFSET	0	179.8	-8.7
								CHANNELS 3  Xrotation Yrotation Zrotation
								End Site
								{
									OFFSET	1	0	0
								}
							}
						}
					}
					JOINT left_clavicle
					{
						OFFSET	-43.2	22.4	-70.8
						CHANNELS 3  Xrotation Yrotation Zrotation
						JOINT left_shoulder
						{
							OFFSET	-93.9	-5.79999	48.7
							CHANNELS 3  Xrotation Yrotation Zrotation
							JOINT left_elbow
							{
								OFFSET	-291.4	-30.8	15.2
								CHANNELS 3  Xrotation Yrotation Zrotation
								JOINT left_lowarm_twist
								{
									OFFSET	-110.7	-3.89999	13.6
									CHANNELS 3  Xrotation Yrotation Zrotation
									JOINT left_hand
									{
										OFFSET	-110.7	-3.89999	13.6
										CHANNELS 3  Xrotation Yrotation Zrotation
										JOINT left_ee
										{
											OFFSET	-80.8	-5.10001	12.1
											CHANNELS 3  Xrotation Yrotation Zrotation
											End Site
											{
												OFFSET	1	0	0
											}
										}
									}
								}
							}
						}
					}
					JOINT right_clavicle
					{
						OFFSET	43.2	22.4	-70.8
						CHANNELS 3  Xrotation Yrotation Zrotation
						JOINT right_shoulder
						{
							OFFSET	93.9	-5.79999	48.7
							CHANNELS 3  Xrotation Yrotation Zrotation
							JOINT right_elbow
							{
								OFFSET	291.4	-30.8	15.2
								CHANNELS 3  Xrotation Yrotation Zrotation
								JOINT right_lowarm_twist
								{
									OFFSET	110.7	-3.89999	13.6
									CHANNELS 3  Xrotation Yrotation Zrotation
									JOINT right_hand
									{
										OFFSET	110.7	-3.89999	13.6
										CHANNELS 3  Xrotation Yrotation Zrotation
										JOINT right_ee
										{
											OFFSET	80.8	-5.10001	12.1
											CHANNELS 3  Xrotation Yrotation Zrotation
											End Site
											{
												OFFSET	1	0	0
											}
										}
									}
								}
							}
						}
					}
				}
			}
		}
	}
	JOINT left_hip
	{
		OFFSET	-82.8	-127.5	0.300001
		CHANNELS 3  Xrotation Yrotation Zrotation
		JOINT left_knee
		{
			OFFSET	-28.2	-396.7	2.2
			CHANNELS 3  Xrotation Yrotation Zrotation
			JOINT left_ankle
			{
				OFFSET	-11.7	-411.3	35.4
				CHANNELS 3  Xrotation Yrotation Zrotation
				JOINT left_toes
				{
					OFFSET	0	-60	-88.6
					CHANNELS 3  Xrotation Yrotation Zrotation
					JOINT left_foot_ee
					{
						OFFSET	-22.5	-16.5	-42.2
						CHANNELS 3  Xrotation Yrotation Zrotation
						End Site
						{
							OFFSET	1	0	0
						}
					}
				}
			}
		}
	}
	JOINT right_hip
	{
		OFFSET	82.8	-127.5	0.300001
		CHANNELS 3  Xrotation Yrotation Zrotation
		JOINT right_knee
		{
			OFFSET	28.2	-396.7	2.2
			CHANNELS 3  Xrotation Yrotation Zrotation
			JOINT right_ankle
			{
				OFFSET	11.7	-411.3	35.4
				CHANNELS 3  Xrotation Yrotation Zrotation
				JOINT right_toes
				{
					OFFSET	0	-60	-88.6
					CHANNELS 3  Xrotation Yrotation Zrotation
					JOINT right_foot_ee
					{
						OFFSET	22.5	-16.5	-42.2
						CHANNELS 3  Xrotation Yrotation Zrotation
						End Site
						{
							OFFSET	1	0	0
						}
					}
				}
			}
		}
	}
}
MOTION
Frames: 9
Frame Time: 0.02
1349.05 707.382 -1464.84 -26.1124 85.0344 27.8775 3.038 -0.158566 -0.101161 3.038 -0.151807 -0.111046 3.0383 -0.132347 -0.133645 3.0383 -0.151793 -0.111065 -22.8635 1.98403 -0.130374 -22.8902 3.88884 0.806085 -0.0 0.0 -0.0 0.877219 5.64006 2.26563 0.159366 -33.3592 58.1613 2.1813 -47.211 0.953327 -37.6272 -2.70242 3.88509 0.387468 11.5799 7.25328 -0.0 0.0 -0.0 2.83482 -3.31253 -5.68428 -29.0943 28.5296 -66.8626 0.637582 17.5283 -0.0982953 -2.98904 0.114859 -0.364338 5.51751 -2.0002 -41.088 0.0 0.0 0.0 -16.6511 -11.3896 2.72785 4.79143 -0.226754 -0.69994 39.5414 -0.11176 -4.83713 -38.7637 0.0 0.0 -0.0 0.0 -0.0 24.9524 12.1444 -7.76825 5.17758 0.24757 0.755501 -15.258 -7.52322 -2.28811 20.9441 -0.0 -0.0 0.0 0.0 0.0 
1326.65 706.355 -1466.84 -42.2961 86.4702 43.544 3.16698 -0.317411 0.0275556 3.16692 -0.318521 0.00730186 3.1669 -0.315767 -0.042427 3.16704 -0.318505 0.00797553 -22.0627 2.23613 1.55163 -22.0766 3.58329 2.45103 -0.0 0.0 -0.0 0.88987 5.28384 2.25297 -1.88156 -33.4675 58.2732 2.19105 -47.3383 0.960491 -37.1224 -2.65046 3.84642 0.413614 9.94281 6.78267 -0.0 0.0 -0.0 2.78191 -3.92498 -5.6249 -29.891 28.7363 -67.2431 0.679677 18.608 -0.111351 -3.00545 0.115542 -0.366322 5.46808 -1.4778 -40.4177 0.0 0.0 0.0 -16.6763 -12.5851 1.98728 4.341 -0.202948 -0.63496 37.8423 -0.10527 -4.68621 -38.4804 0.0 0.0 -0.0 0.0 -0.0 24.6887 12.3542 -7.49021 2.50951 0.111446 0.368913 -17.5927 -9.8006 -2.64236 18.8246 -0.0 -0.0 0.0 0.0 0.0 
1302.3 704.947 -1465.32 -58.2243 87.349 59.6286 3.4622 -0.255074 0.0637609 3.46216 -0.258614 0.0474006 3.46196 -0.262804 0.00787097 3.46206 -0.258263 0.0492775 -22.2693 2.24732 1.39882 -22.2861 3.68217 2.32263 -0.0 0.0 -0.0 1.05145 5.19892 2.53969 -3.89207 -33.7274 58.6953 2.13286 -46.5695 0.91797 -37.6713 -2.70698 3.88845 0.356557 11.2307 6.91934 -0.0 0.0 -0.0 3.15761 -2.08747 -6.21587 -29.0041 28.693 -67.8495 0.695355 19.0067 -0.116406 -2.70194 0.103002 -0.329605 5.51995 -1.74805 -40.9985 0.0 0.0 0.0 -18.1462 -13.3882 1.66728 3.85762 -0.177971 -0.565023 36.8326 0.354841 -4.59025 -38.9124 0.0 0.0 -0.0 0.0 -0.0 23.9485 11.6789 -7.09096 -0.127743 -0.00523886 -0.0189034 -16.2527 -10.1081 -2.43927 19.967 -0.0 -0.0 0.0 0.0 0.0 
1282.08 708.358 -1468.52 -106.626 88.3269 107.938 3.3027 -0.352221 0.0903377 3.30264 -0.357256 0.0677416 3.30224 -0.36342 0.0120951 3.30242 -0.356949 0.0693394 -23.4152 1.9558 0.904707 -23.4332 3.36875 1.77099 -0.0 0.0 -0.0 0.792495 5.55006 2.10241 -5.42256 -33.7932 59.8214 2.18396 -47.2458 0.955281 -36.3304 -2.56963 3.78485 0.371131 10.5589 6.75027 -0.0 0.0 -0.0 3.30372 -3.59487 -6.57747 -29.3649 30.823 -67.0253 0.706373 19.2858 -0.12002 -2.67272 0.101805 -0.326067 5.29777 -1.41289 -38.8994 0.0 0.0 0.0 -19.2993 -14.0253 1.15307 3.77736 -0.17388 -0.553391 35.6245 -0.22872 -4.48087 -38.752 0.0 0.0 -0.0 0.0 -0.0 23.6625 11.3207 -6.66859 -2.89721 -0.108399 -0.431367 -15.1173 -9.82691 -2.26667 20.8045 -0.0 -0.0 0.0 0.0 0.0 
1260.06 709.652 -1466.62 -90.0001 88.2193 90.0001 3.20518 -0.260776 0.00970709 3.20515 -0.260865 -0.00690656 3.20519 -0.256633 -0.0473049 3.20528 -0.260884 -0.00618052 -22.9128 2.36773 1.72236 -22.9289 3.7825 2.70408 -0.0 0.0 -0.0 0.622163 7.5701 2.00449 -7.98013 -33.0564 59.7847 2.2659 -48.2955 1.01596 -36.4747 -2.58429 3.79615 0.364369 10.1512 6.54677 -0.0 0.0 -0.0 3.16411 -2.77769 -6.26926 -29.213 28.9423 -67.6429 0.712413 19.4384 -0.122022 -3.00232 0.115412 -0.365943 5.44835 -1.35188 -40.1875 0.0 0.0 0.0 -18.731 -14.5912 2.13093 1.15472 -0.0492696 -0.170343 35.7122 0.542822 -4.48363 -38.9879 0.0 0.0 -0.0 0.0 -0.0 22.1322 11.6882 -4.7791 -3.24998 -0.120103 -0.484243 -15.307 -10.7116 -2.29641 20.0554 -0.0 -0.0 0.0 0.0 0.0 
1236.03 712.197 -1466.4 -90.0001 88.8814 90.0001 3.1932 -0.141383 0.0966145 3.1932 -0.147245 0.0874221 3.19297 -0.159041 0.0634787 3.193 -0.14702 0.0877997 -24.257 2.46119 1.99808 -24.2739 3.88192 3.0628 -0.0 0.0 -0.0 0.49905 6.32206 1.65165 -12.1482 -32.3751 59.9157 2.34321 -49.2478 1.07411 -33.9435 -2.33129 3.59263 0.221616 7.27527 4.47409 -0.0 0.0 -0.0 3.00434 -3.20006 -5.99456 -28.9677 29.4577 -67.2093 0.746583 20.2962 -0.133635 -6.06478 0.252752 -0.732562 5.11689 -5.01688 -38.8217 0.0 0.0 0.0 -17.6967 -14.8035 3.17571 -2.04766 0.0788789 0.30433 36.5717 -0.714705 -4.57421 -38.0473 0.0 0.0 -0.0 0.0 -0.0 19.1741 12.0143 -4.82009 -4.31213 -0.15337 -0.643853 -6.84147 -6.27907 -1.01598 22.5151 -0.0 -0.0 0.0 0.0 0.0 
1214.2 718.087 -1465.38 -90.0002 89.2051 90.0002 3.13203 -0.12986 0.148499 3.13204 -0.139047 0.139935 3.13169 -0.159228 0.116457 3.1317 -0.138837 0.140142 -27.1628 1.99847 -0.635584 -27.2 4.08786 0.490725 -0.0 0.0 -0.0 0.194469 8.19795 1.31567 -14.4244 -31.9303 60.4779 2.35552 -49.3961 1.08344 -34.7454 -2.41046 3.65831 0.301444 10.7134 6.36304 -0.0 0.0 -0.0 2.9487 -4.842 -5.98996 -28.9592 29.5801 -66.6532 0.806478 21.7769 -0.155137 -3.58515 0.140034 -0.436265 4.70344 -0.449529 -33.5291 0.0 0.0 0.0 -16.1513 -16.7841 3.30962 -6.03776 0.201087 0.904372 35.4604 -0.976744 -4.4714 -38.1047 0.0 0.0 -0.0 0.0 -0.0 17.3395 12.1094 -4.58616 -3.94744 -0.142281 -0.588983 -8.61008 -10.1604 -1.28154 20.6597 -0.0 -0.0 0.0 0.0 0.0 
1200.38 719.968 -1465.46 -13.1327 88.6664 12.9121 3.09087 -0.0533865 0.1195 3.09088 -0.0608824 0.115861 3.09075 -0.0783344 0.104853 3.09074 -0.0607917 0.115909 -28.0185 1.93185 -1.16467 -28.0559 4.14024 -0.0137084 -0.0 0.0 -0.0 0.120495 7.81502 1.14108 -16.7445 -31.6314 60.9927 2.30876 -48.8279 1.04809 -33.5378 -2.29158 3.55898 0.332542 10.257 6.38336 -0.0 0.0 -0.0 2.98144 -4.04404 -6.00295 -26.2975 29.4714 -66.3988 0.923625 24.5855 -0.201264 -3.28617 0.127314 -0.400222 4.64607 -0.325045 -33.0151 0.0 0.0 0.0 -14.1173 -15.4439 4.03485 -9.10322 0.266421 1.37019 36.0775 -0.171425 -4.52341 -38.0388 0.0 0.0 -0.0 0.0 -0.0 15.3877 12.2326 -4.65842 -3.0577 -0.113764 -0.455415 -6.22579 -9.41421 -0.922894 21.0924 -0.0 -0.0 0.0 0.0 0.0 
1179.58 724.132 -1467.64 -90.0021 89.9306 90.0021 3.06473 0.00947889 0.097758 3.06473 0.00323909 0.098163 3.06474 -0.0122725 0.0974467 3.06472 0.00327145 0.098162 -28.1179 2.01418 -1.41934 -28.1589 4.3891 -0.203036 -0.0 0.0 -0.0 -0.222754 7.21746 0.45917 -19.6989 -31.5277 61.7588 2.27786 -48.4452 1.0249 -33.1641 -2.25522 3.52775 0.528748 11.0379 7.95037 -0.0 0.0 -0.0 2.84186 -6.55304 -5.89566 -25.2102 28.6448 -65.5144 1.0211 26.8307 -0.243556 -3.27277 0.126748 -0.398605 4.16452 -0.0130541 -29.1069 0.0 0.0 0.0 -9.66379 -15.9429 4.58121 -19.4492 0.301785 2.95507 37.3441 -7.11062 -4.7299 -37.3611 0.0 0.0 -0.0 0.0 -0.0 11.6226 12.4773 -4.79362 0.159028 0.00658094 0.0235168 -3.50286 -8.6693 -0.516569 22.2785 -0.0 -0.0 0.0 0.0 0.0 
